<svg xmlns="http://www.w3.org/2000/svg" width="15" height="15" version="1.1" viewBox="0 0 15 15"><title>15_text-format-unindent</title><desc>Created with Sketch.</desc><g id="15_text-format-unindent" fill="none" fill-rule="evenodd" stroke="none" stroke-width="1"><g id="Group-5" fill="#585858" fill-rule="nonzero" transform="translate(7.500000, 7.500000) scale(-1, 1) translate(-7.500000, -7.500000) translate(2.000000, 4.000000)"><polygon id="Line-18" points="0 3 0 4 8 4 8 3"/><path id="Line-19" d="M8.85355339,3.14644661 L5.85355339,0.146446609 C5.65829124,-0.0488155365 5.34170876,-0.0488155365 5.14644661,0.146446609 C4.95118446,0.341708755 4.95118446,0.658291245 5.14644661,0.853553391 L8.14644661,3.85355339 C8.34170876,4.04881554 8.65829124,4.04881554 8.85355339,3.85355339 C9.04881554,3.65829124 9.04881554,3.34170876 8.85355339,3.14644661 Z"/><path id="Line-20" d="M8.14644661,3.14644661 L5.14644661,6.14644661 C4.95118446,6.34170876 4.95118446,6.65829124 5.14644661,6.85355339 C5.34170876,7.04881554 5.65829124,7.04881554 5.85355339,6.85355339 L8.85355339,3.85355339 C9.04881554,3.65829124 9.04881554,3.34170876 8.85355339,3.14644661 C8.65829124,2.95118446 8.34170876,2.95118446 8.14644661,3.14644661 Z"/><polygon id="Line-21" points="11 0 10 0 10 7 11 7"/></g></g></svg>